<svg xmlns="http://www.w3.org/2000/svg" version="1.1" xmlns:xlink="http://www.w3.org/1999/xlink" xmlns:svgjs="http://svgjs.dev/svgjs" width="128" height="128" viewBox="0 0 128 128"><g transform="matrix(0.8046875,0,0,0.8046875,12.506335372881338,25.450648926661138)"><svg viewBox="0 0 59 44" data-background-color="#ffffff" preserveAspectRatio="xMidYMid meet" height="95" width="128" xmlns="http://www.w3.org/2000/svg" xmlns:xlink="http://www.w3.org/1999/xlink"><g id="tight-bounds" transform="matrix(1,0,0,1,-0.0036289999999894462,0.1880373270357154)"><svg viewBox="0 0 59.007257999999986 43.62392534592857" height="43.62392534592857" width="59.007257999999986"><g><svg viewBox="0 0 59.007257999999986 43.62392534592857" height="43.62392534592857" width="59.007257999999986"><g><svg viewBox="0 0 59.007257999999986 43.62392534592857" height="43.62392534592857" width="59.007257999999986"><g><svg viewBox="0 0 59.007257999999986 43.62392534592857" height="43.62392534592857" width="59.007257999999986"><g id="textblocktransform"><svg viewBox="0 0 59.007257999999986 43.62392534592857" height="43.62392534592857" width="59.007257999999986" id="textblock"><g><svg viewBox="0 0 59.007257999999986 43.62392534592857" height="43.62392534592857" width="59.007257999999986"><g><svg viewBox="0 0 59.007257999999986 43.62392534592857" height="43.62392534592857" width="59.007257999999986"><g><svg xmlns="http://www.w3.org/2000/svg" xmlns:xlink="http://www.w3.org/1999/xlink" version="1.1" x="0" y="0" viewBox="7.896 18.437 83.99999999999999 62.101" enable-background="new 0 0 100 100" xml:space="preserve" height="43.62392534592857" width="59.007257999999986" class="icon-icon-0" data-fill-palette-color="accent" id="icon-0"><g fill="#0053cc" data-fill-palette-color="accent"><path d="M89.774 36.738l-5.933 3.479-0.036 2.549-7.827 9.025c-0.668 0.769-0.584 1.932 0.186 2.6 0.767 0.668 1.931 0.585 2.597-0.184l4.965-5.721-0.12 8.373c0 0.983 0.668 1.808 1.573 2.05-0.018 0.102-0.026 0.208-0.026 0.316v17.813l-2.501 0.591c-1.094 0-1.979 0.888-1.979 1.98 0 1.094 0.885 0.918 1.979 0.918h4.275c0.064 0.007 0.134 0.011 0.204 0.011 1.092 0 1.978-0.887 1.978-1.98V59.225c0-0.094-0.009-0.186-0.021-0.277 0.993-0.177 1.747-1.042 1.747-2.088l1.061-18C91.893 37.688 90.944 36.738 89.774 36.738z" fill="#0053cc" data-fill-palette-color="accent"></path><circle cx="87.129" cy="32.018" r="4.1" fill="#0053cc" data-fill-palette-color="accent"></circle></g><g fill="#0053cc" data-fill-palette-color="accent"><g fill="#0053cc" data-fill-palette-color="accent"><path d="M59.327 75.076l-2.21 2.694 0.639 0.679c0.495 0.526 1.322 0.552 1.851 0.057l0.609-0.573c0.527-0.497 0.554-1.324 0.057-1.851L59.327 75.076z" fill="#0053cc" data-fill-palette-color="accent"></path><polygon points="58.18,73.854 55.969,76.549 56.538,77.155 58.749,74.46   " fill="#0053cc" data-fill-palette-color="accent"></polygon><polygon points="57.101,72.708 54.891,75.403 55.389,75.933 57.6,73.238   " fill="#0053cc" data-fill-palette-color="accent"></polygon><g fill="#0053cc" data-fill-palette-color="accent"><path d="M48.72 63.8c-0.292-0.312-0.7-0.444-1.093-0.404-0.05-0.005-0.099-0.009-0.149-0.009h-0.333-2.187H32.037l-1.106-7.079-0.193-1.237 6.492-1.016 5.271-0.823c0.576-0.09 0.971-0.631 0.881-1.208l-0.105-0.668c-0.089-0.576-0.63-0.971-1.208-0.881l-11.763 1.837-0.593-3.805c-0.112-0.715-0.782-1.202-1.497-1.091l-0.827 0.128c-0.715 0.112-1.202 0.78-1.091 1.495l1.034 6.619c-3.877 2.351-6.468 6.608-6.468 11.473 0 7.404 6.002 13.405 13.406 13.405 7.208 0 13.085-5.687 13.394-12.817l6.649 7.068 2.211-2.693L48.72 63.8zM34.27 78.457c-6.254 0-11.325-5.071-11.325-11.326 0-3.797 1.872-7.157 4.741-9.211l1.216 7.78c0.106 0.681 0.719 1.154 1.394 1.102 0.104 0.025 0.21 0.042 0.321 0.042h14.974c0.003 0.097 0.007 0.191 0.007 0.289C45.596 73.386 40.523 78.457 34.27 78.457z" fill="#0053cc" data-fill-palette-color="accent"></path><circle cx="26.869" cy="42.126" r="4.1" fill="#0053cc" data-fill-palette-color="accent"></circle></g></g><g fill="#0053cc" data-fill-palette-color="accent"><path d="M7.896 38.861l1.061 18c0 1.044 0.755 1.911 1.748 2.088-0.012 0.092-0.021 0.184-0.021 0.278v19.331c0 1.092 0.885 1.979 1.978 1.979 0.07 0 0.137-0.006 0.204-0.012h4.274c1.092 0 1.978 0.176 1.978-0.918 0-1.092-0.885-1.979-1.978-1.979l-2.5-0.593v-17.81c0-0.108-0.011-0.214-0.027-0.319 0.905-0.241 1.575-1.064 1.575-2.049l-0.12-8.373 4.964 5.723c0.666 0.77 1.83 0.852 2.6 0.185 0.768-0.667 0.851-1.83 0.184-2.6l-7.83-9.026-0.036-2.549-5.931-3.479C8.846 36.739 7.896 37.689 7.896 38.861z" fill="#0053cc" data-fill-palette-color="accent"></path><circle cx="12.662" cy="32.019" r="4.1" fill="#0053cc" data-fill-palette-color="accent"></circle></g></g><g fill="#0053cc" data-fill-palette-color="accent"><path d="M67.21 56.654h9.008c0.218 0 0.396-0.177 0.396-0.397 0-0.22-0.178-0.397-0.396-0.397H67.21c-0.219 0-0.396 0.178-0.396 0.397C66.812 56.476 66.989 56.654 67.21 56.654z" fill="#0053cc" data-fill-palette-color="accent"></path><path d="M66.505 56.325c0.17-0.138 0.197-0.389 0.059-0.56L60.9 48.76c-0.138-0.17-0.389-0.195-0.559-0.058s-0.197 0.389-0.058 0.559l5.663 7.006C66.085 56.436 66.335 56.464 66.505 56.325z" fill="#0053cc" data-fill-palette-color="accent"></path><path d="M75.965 57.191h-9.14c-1.15 0-2.084 0.933-2.084 2.085v18.616c0 1.151 0.932 2.086 2.084 2.086h9.14c1.15 0 2.085-0.933 2.085-2.086V59.276C78.05 58.125 77.117 57.191 75.965 57.191z" fill="#0053cc" data-fill-palette-color="accent"></path></g><polygon points="72.9,21 72.9,18.437 70.526,18.437 70.526,21 67.963,21 67.963,23.374 70.526,23.374 70.526,25.937 72.9,25.937   72.9,23.374 75.463,23.374 75.463,21 " fill="#0053cc" data-fill-palette-color="accent"></polygon></svg></g></svg></g></svg></g></svg></g></svg></g></svg></g></svg></g><defs></defs></svg><rect width="59.007257999999986" height="43.62392534592857" fill="none" stroke="none" visibility="hidden"></rect></g></svg></g></svg>